<?xml version="1.0" encoding="utf-8"?>
<!-- Generator: Adobe Illustrator 20.0.0, SVG Export Plug-In . SVG Version: 6.00 Build 0)  -->
<svg version="1.1" id="Ebene_1" xmlns="http://www.w3.org/2000/svg" xmlns:xlink="http://www.w3.org/1999/xlink" x="0px" y="0px"
	 viewBox="0 0 391.2 120.5" style="enable-background:new 0 0 391.2 120.5;" xml:space="preserve">
<style type="text/css">
	.st0{fill:#FFFFFF;}
</style>
<path class="st0" d="M167.8,72.9c-1.9-2.5-4.8-4.1-8.7-4.1c-7.8,0-13.9,6.1-13.9,14.6c0,8.5,6.1,14.6,13.9,14.6c4,0,6.8-1.6,8.7-4.1
	v3.3h6.1V69.5h-6.1V72.9z M159.8,92.3c-5.2,0-8.4-4-8.4-8.9c0-4.9,3.2-8.9,8.4-8.9c5,0,8.4,3.8,8.4,8.9
	C168.1,88.5,164.7,92.3,159.8,92.3z M148.2,56.7h-32.8v6.2h13.1v34.4h6.6V62.9h13.1V56.7z M211.9,68.8c-8.6,0-14.9,6.3-14.9,14.6
	S203.3,98,211.9,98c8.6,0,15-6.3,15-14.6S220.4,68.8,211.9,68.8z M211.9,92.3c-5,0-8.7-3.7-8.7-8.9c0-5.2,3.7-8.9,8.7-8.9
	c5,0,8.7,3.7,8.7,8.9C220.6,88.7,216.8,92.3,211.9,92.3z M183.3,97.3h6.1V56.7h-6.1V97.3z M345.7,68.8c-2.8,0-6.3,0.9-8.5,4.1v-3.4
	h-6v27.8h6.1V81.9c0-4.8,3.3-7.3,7.2-7.3c4.1,0,6.5,2.6,6.5,7.3v15.5h6.1V79.8C357,73.3,352.3,68.8,345.7,68.8z M247.7,68.8
	c-2.8,0-6.3,0.9-8.5,4.1v-3.4h-6v27.8h6.1V81.9c0-4.8,3.3-7.3,7.2-7.3c4.1,0,6.5,2.6,6.5,7.3v15.5h6.1V79.8
	C259,73.3,254.3,68.8,247.7,68.8z M391.2,83.4c0-8.7-5.4-14.6-13.1-14.6c-8.2,0-13.8,5.9-13.8,14.6c0,8.8,5.9,14.6,14.2,14.6
	c4.2,0,8-1,11.4-3.9l-3.8-3.8c-2.2,1.5-4.8,2.4-7.3,2.4c-3.9,0-7.5-2.1-8.3-7.1h20.5C391.2,84.9,391.2,84.2,391.2,83.4z M370.6,81
	c0.6-4.1,3-6.8,7.4-6.8c3.9,0,6.4,2.5,7,6.8H370.6z M303,55.9c-12.5,0-21.3,8.9-21.3,21.1c0,12.2,8.8,21.1,21.3,21.1
	c12.5,0,21.3-8.9,21.3-21.1C324.3,64.8,315.5,55.9,303,55.9z M303,91.8c-8.3,0-14.4-6-14.4-14.8c0-8.8,6.1-14.8,14.4-14.8
	c8.3,0,14.4,6,14.4,14.8C317.4,85.8,311.3,91.8,303,91.8z M271.9,87.9c-2.7,0-5.1,2.4-5.1,5c0,2.7,2.4,5.1,5.1,5.1
	c2.7,0,5-2.4,5-5.1C277,90.2,274.6,87.9,271.9,87.9z"/>
<path class="st0" d="M0,0v55.3h55.3L0,0z M31.2,58.1v62.4l62.4-62.4H31.2z M28.3,86.5V58.1H0L28.3,86.5z"/>
<g>
</g>
<g>
</g>
<g>
</g>
<g>
</g>
<g>
</g>
<g>
</g>
</svg>